<?xml version="1.0" encoding="UTF-8"?>
<!DOCTYPE svg PUBLIC "-//W3C//DTD SVG 1.1//EN" "http://www.w3.org/Graphics/SVG/1.1/DTD/svg11.dtd">
<!-- Creator: CorelDRAW X8 -->
<svg xmlns="http://www.w3.org/2000/svg" xml:space="preserve" width="11.5929mm" height="14.28mm" version="1.1" style="shape-rendering:geometricPrecision; text-rendering:geometricPrecision; image-rendering:optimizeQuality; fill-rule:evenodd; clip-rule:evenodd"
viewBox="0 0 1159 1428"
 xmlns:xlink="http://www.w3.org/1999/xlink">
 <defs>
  <style type="text/css">
   <![CDATA[
    .fil0 {fill:#FFCC00;fill-rule:nonzero}
   ]]>
  </style>
 </defs>
 <g id="Layer_x0020_2">
  <metadata id="CorelCorpID_0Corel-Layer"/>
  <path class="fil0" d="M1082 194c-42,0 -76,34 -76,77l0 367c0,9 -8,17 -17,17 -10,0 -17,-8 -17,-17l0 -367 0 -181c0,-50 -41,-90 -90,-90 -26,0 -49,9 -65,27 -17,17 -26,39 -26,63l0 7 0 541c0,9 -7,17 -17,17 -9,0 -17,-8 -17,-17l0 -541c0,-53 -43,-97 -97,-97 -61,0 -97,53 -97,103l0 97 0 438c0,9 -8,17 -17,17 -9,0 -17,-8 -17,-17l0 -438c0,-50 -40,-90 -90,-90 -56,0 -90,49 -90,96l0 664 200 0c80,0 155,35 208,95 6,8 5,18 -2,24 -3,3 -7,5 -11,5 -5,0 -10,-2 -13,-6 -46,-53 -112,-84 -182,-84l-217 0c-1,0 -2,0 -2,0 -1,0 -1,0 -1,0 -2,0 -3,-1 -4,-1 -1,0 -1,-1 -1,-1 -1,0 -2,-1 -3,-2 0,0 -1,0 -1,0l-84 -80c-31,-29 -71,-43 -110,-43 -41,0 -82,15 -114,47 -16,15 -16,41 -1,58l320 346c128,142 258,200 449,200 209,0 379,-172 379,-383l0 -771c0,-39 -27,-80 -77,-80z"/>
 </g>
</svg>
