<?xml version="1.0" encoding="UTF-8"?>
<!DOCTYPE svg PUBLIC "-//W3C//DTD SVG 1.1//EN" "http://www.w3.org/Graphics/SVG/1.1/DTD/svg11.dtd">
<!-- Creator: CorelDRAW X8 -->
<svg xmlns="http://www.w3.org/2000/svg" xml:space="preserve" width="10.1205mm" height="10.939mm" version="1.1" style="shape-rendering:geometricPrecision; text-rendering:geometricPrecision; image-rendering:optimizeQuality; fill-rule:evenodd; clip-rule:evenodd"
viewBox="0 0 162 176"
 xmlns:xlink="http://www.w3.org/1999/xlink">
 <defs>
  <style type="text/css">
   <![CDATA[
    .fil0 {fill:#CCCCCC;fill-rule:nonzero}
   ]]>
  </style>
 </defs>
 <g id="Layer_x0020_2">
  <metadata id="CorelCorpID_0Corel-Layer"/>
  <path class="fil0" d="M123 55l0 -12 0 -25c0,-10 -8,-18 -18,-18 -10,0 -18,8 -18,18l0 0 0 36 32 0c2,0 3,0 4,1zm23 -28c-10,0 -17,7 -17,16l0 20 0 5 0 1c0,9 7,17 17,17 9,0 16,-8 16,-17l0 -26c0,-9 -7,-16 -16,-16zm-65 -9c0,-10 -8,-18 -18,-18 -10,0 -18,8 -18,18l0 36 36 0 0 -36zm65 74c-9,0 -16,-5 -20,-12 -5,13 -17,22 -31,22l-23 0c11,6 18,18 18,31l0 11c0,1 -1,2 -3,2 -1,0 -2,-1 -2,-2l0 -11c0,-17 -15,-31 -32,-31l-1 0c-1,0 -2,-2 -2,-3l0 0c0,-2 1,-3 2,-3l1 0 42 0c16,0 28,-13 28,-28l0 -5c0,-2 -2,-4 -4,-4l-35 0 -42 0 -9 0c-10,0 -19,5 -25,12 -1,0 -1,1 -1,1 -1,1 -1,1 -1,1 0,1 -1,1 -1,2 0,0 0,0 0,1 -1,0 -1,1 -2,2 0,0 0,0 0,0 0,1 0,1 -1,2 0,0 0,0 0,1 0,0 0,1 -1,2 0,0 0,0 0,0 0,1 0,2 0,3 0,0 0,0 0,0 -1,1 -1,2 -1,3 0,0 0,0 0,0 0,1 0,2 0,3 0,2 0,5 0,7 4,43 40,77 83,77l10 0c38,0 69,-31 69,-69l0 -23c-4,5 -10,8 -16,8zm-107 -38l0 -36 0 -1c0,-9 -7,-15 -15,-15 -8,0 -15,6 -15,15l0 45c7,-5 15,-8 24,-8l6 0z"/>
 </g>
</svg>
