<?xml version="1.0" encoding="UTF-8"?>
<!DOCTYPE svg PUBLIC "-//W3C//DTD SVG 1.1//EN" "http://www.w3.org/Graphics/SVG/1.1/DTD/svg11.dtd">
<!-- Creator: CorelDRAW X8 -->
<svg xmlns="http://www.w3.org/2000/svg" xml:space="preserve" width="9.7168mm" height="15.6181mm" version="1.1" style="shape-rendering:geometricPrecision; text-rendering:geometricPrecision; image-rendering:optimizeQuality; fill-rule:evenodd; clip-rule:evenodd"
viewBox="0 0 219 351"
 xmlns:xlink="http://www.w3.org/1999/xlink">
 <defs>
  <style type="text/css">
   <![CDATA[
    .fil0 {fill:#CCCCCC;fill-rule:nonzero}
   ]]>
  </style>
 </defs>
 <g id="Layer_x0020_2">
  <metadata id="CorelCorpID_0Corel-Layer"/>
  <path class="fil0" d="M72 194l38 0 0 -42c0,-9 4,-17 10,-23l14 -104c1,-6 0,-11 -4,-16 -3,-5 -8,-8 -14,-8 -6,-1 -12,0 -16,4 -5,3 -8,8 -9,14l-20 139c0,2 -2,4 -4,4 -2,0 -3,-2 -3,-4l-21 -139c-1,-6 -4,-11 -8,-15 -5,-3 -11,-5 -16,-4 -12,2 -20,13 -19,25 6,42 10,72 13,93 8,56 9,65 10,104 9,-17 28,-28 49,-28zm61 -64c0,0 0,0 -1,0 0,0 0,0 -1,1 0,0 0,0 -1,0 0,0 0,0 0,0 -1,1 -1,1 -2,1 0,0 0,0 0,1 -1,0 -1,0 -1,0 -1,1 -1,1 -1,1 -5,4 -8,11 -8,18l0 42 36 0c4,0 7,1 10,3l0 -21 0 0 0 -24c0,-12 -9,-22 -21,-23 0,-1 -1,-1 -2,-1 -1,0 -2,0 -2,1 -1,0 -1,0 -1,0 -1,0 -1,0 -1,0 -1,0 -1,0 -1,0 -1,0 -1,0 -2,0 0,0 0,1 -1,1zm62 23c-13,0 -23,10 -23,23l0 33c0,1 0,2 0,3 0,0 0,0 0,0 1,12 11,21 23,21 13,0 24,-11 24,-24l0 -33c0,-13 -11,-23 -24,-23zm0 87c-11,0 -20,-5 -26,-14 -6,17 -21,28 -40,28l-15 0c14,9 23,24 23,42l0 13c0,2 -2,4 -4,4 -2,0 -4,-2 -4,-4l0 -13c0,-23 -18,-42 -41,-42 -2,0 -4,-1 -4,-4l0 0c0,-2 2,-3 4,-3l41 0c9,0 17,-4 23,-9 3,-2 6,-6 8,-9 3,-5 4,-11 4,-17 0,0 0,0 0,0 0,-1 0,-2 0,-2 0,0 0,0 0,0 -1,-5 -5,-9 -10,-9l-36 0 -4 0 -4 0 -38 0c-27,0 -49,22 -49,49l0 0 0 0c0,30 11,56 31,75 19,18 46,28 73,26 51,-3 92,-48 92,-101l0 -20c-6,6 -14,10 -24,10z"/>
 </g>
</svg>
